<svg xmlns="http://www.w3.org/2000/svg" viewBox="0 0 360 420"><defs><linearGradient id="g" x1="0" y1="0" x2="1" y2="1"><stop stop-color="#d4b6ff"/><stop offset="1" stop-color="#5f4ab0"/></linearGradient><radialGradient id="r"><stop stop-color="#fff" stop-opacity=".34"/><stop offset="1" stop-color="#fff" stop-opacity="0"/></radialGradient></defs><rect width="360" height="420" rx="36" fill="#10162f"/><rect x="12" y="12" width="336" height="396" rx="30" fill="url(#g)"/><circle cx="180" cy="145" r="135" fill="url(#r)"/><path d="M54 391c17-98 70-148 126-148s109 50 126 148" fill="#0b1025" opacity=".78"/><circle cx="180" cy="155" r="72" fill="#111831" opacity=".92"/><path d="M224 112c-38 15-52 61-28 95 18 25 48 34 74 22-16 37-60 56-99 35-41-22-55-73-33-114 16-30 50-46 86-38z" fill="#fff5c9"/><text x="180" y="382" text-anchor="middle" fill="#fff" font-family="system-ui,sans-serif" font-size="28" font-weight="700">LUNA</text></svg>